<svg width="313" height="38" viewBox="0 0 313 38" fill="none" xmlns="http://www.w3.org/2000/svg">
<g filter="url(#filter0_d)">
<path d="M49.0156 15V3.625H52.5156C53.5156 3.625 54.4089 3.85156 55.1953 4.30469C55.987 4.7526 56.6042 5.39323 57.0469 6.22656C57.4896 7.05469 57.7109 7.9974 57.7109 9.05469V9.57812C57.7109 10.6354 57.4922 11.5755 57.0547 12.3984C56.6224 13.2214 56.0104 13.8594 55.2188 14.3125C54.4271 14.7656 53.5339 14.9948 52.5391 15H49.0156ZM51.3594 5.52344V13.1172H52.4922C53.4089 13.1172 54.1094 12.8177 54.5938 12.2188C55.0781 11.6198 55.3255 10.763 55.3359 9.64844V9.04688C55.3359 7.89062 55.0964 7.01562 54.6172 6.42188C54.138 5.82292 53.4375 5.52344 52.5156 5.52344H51.3594ZM65.7719 15C65.6677 14.7969 65.5922 14.5443 65.5453 14.2422C64.9984 14.8516 64.2875 15.1562 63.4125 15.1562C62.5844 15.1562 61.8969 14.9167 61.35 14.4375C60.8083 13.9583 60.5375 13.3542 60.5375 12.625C60.5375 11.7292 60.8682 11.0417 61.5297 10.5625C62.1964 10.0833 63.1573 9.84115 64.4125 9.83594H65.4516V9.35156C65.4516 8.96094 65.35 8.64844 65.1469 8.41406C64.949 8.17969 64.6339 8.0625 64.2016 8.0625C63.8214 8.0625 63.5219 8.15365 63.3031 8.33594C63.0896 8.51823 62.9828 8.76823 62.9828 9.08594H60.725C60.725 8.59635 60.876 8.14323 61.1781 7.72656C61.4802 7.3099 61.9073 6.98438 62.4594 6.75C63.0115 6.51042 63.6313 6.39062 64.3188 6.39062C65.3604 6.39062 66.1859 6.65365 66.7953 7.17969C67.4099 7.70052 67.7172 8.4349 67.7172 9.38281V13.0469C67.7224 13.849 67.8344 14.4557 68.0531 14.8672V15H65.7719ZM63.9047 13.4297C64.238 13.4297 64.5453 13.3568 64.8266 13.2109C65.1078 13.0599 65.3161 12.8594 65.4516 12.6094V11.1562H64.6078C63.4776 11.1562 62.876 11.5469 62.8031 12.3281L62.7953 12.4609C62.7953 12.7422 62.8943 12.974 63.0922 13.1562C63.2901 13.3385 63.5609 13.4297 63.9047 13.4297ZM70.7 10.7109C70.7 9.39323 70.9943 8.34375 71.5828 7.5625C72.1766 6.78125 72.9865 6.39062 74.0125 6.39062C74.8354 6.39062 75.5151 6.69792 76.0516 7.3125V3H78.3172V15H76.2781L76.1688 14.1016C75.6063 14.8047 74.8823 15.1562 73.9969 15.1562C73.0021 15.1562 72.2026 14.7656 71.5984 13.9844C70.9995 13.1979 70.7 12.1068 70.7 10.7109ZM72.9578 10.875C72.9578 11.6667 73.0958 12.2734 73.3719 12.6953C73.6479 13.1172 74.049 13.3281 74.575 13.3281C75.2729 13.3281 75.7651 13.0339 76.0516 12.4453V9.10938C75.7703 8.52083 75.2833 8.22656 74.5906 8.22656C73.5021 8.22656 72.9578 9.10938 72.9578 10.875ZM81.3156 10.7109C81.3156 9.39323 81.6099 8.34375 82.1984 7.5625C82.7922 6.78125 83.6021 6.39062 84.6281 6.39062C85.451 6.39062 86.1307 6.69792 86.6672 7.3125V3H88.9328V15H86.8937L86.7844 14.1016C86.2219 14.8047 85.4979 15.1562 84.6125 15.1562C83.6177 15.1562 82.8182 14.7656 82.2141 13.9844C81.6151 13.1979 81.3156 12.1068 81.3156 10.7109ZM83.5734 10.875C83.5734 11.6667 83.7115 12.2734 83.9875 12.6953C84.2635 13.1172 84.6646 13.3281 85.1906 13.3281C85.8885 13.3281 86.3807 13.0339 86.6672 12.4453V9.10938C86.3859 8.52083 85.899 8.22656 85.2062 8.22656C84.1177 8.22656 83.5734 9.10938 83.5734 10.875ZM95.4391 11.8047L97.0016 6.54688H99.4234L96.025 16.3125L95.8375 16.7578C95.3323 17.862 94.499 18.4141 93.3375 18.4141C93.0094 18.4141 92.676 18.3646 92.3375 18.2656V16.5547L92.6813 16.5625C93.1083 16.5625 93.426 16.4974 93.6344 16.3672C93.8479 16.237 94.0146 16.0208 94.1344 15.7188L94.4 15.0234L91.4391 6.54688H93.8688L95.4391 11.8047ZM102.688 7.11719L101.625 6.5C102.073 5.79688 102.305 5.07031 102.32 4.32031V3H104.117V4.21094C104.117 4.67969 103.987 5.1875 103.727 5.73438C103.466 6.28125 103.12 6.74219 102.688 7.11719ZM110.077 12.6641C110.077 12.388 109.939 12.1719 109.662 12.0156C109.392 11.8542 108.954 11.7109 108.35 11.5859C106.34 11.1641 105.334 10.3099 105.334 9.02344C105.334 8.27344 105.644 7.64844 106.264 7.14844C106.889 6.64323 107.704 6.39062 108.709 6.39062C109.782 6.39062 110.639 6.64323 111.28 7.14844C111.926 7.65365 112.248 8.3099 112.248 9.11719H109.991C109.991 8.79427 109.886 8.52865 109.678 8.32031C109.47 8.10677 109.144 8 108.702 8C108.321 8 108.027 8.08594 107.819 8.25781C107.61 8.42969 107.506 8.64844 107.506 8.91406C107.506 9.16406 107.623 9.36719 107.858 9.52344C108.097 9.67448 108.498 9.80729 109.061 9.92188C109.623 10.0312 110.097 10.1562 110.483 10.2969C111.676 10.7344 112.272 11.4922 112.272 12.5703C112.272 13.3411 111.941 13.9661 111.28 14.4453C110.618 14.9193 109.764 15.1562 108.717 15.1562C108.009 15.1562 107.379 15.0312 106.827 14.7812C106.28 14.526 105.85 14.1797 105.537 13.7422C105.225 13.2995 105.069 12.8229 105.069 12.3125H107.209C107.23 12.7135 107.379 13.0208 107.655 13.2344C107.931 13.4479 108.301 13.5547 108.764 13.5547C109.196 13.5547 109.522 13.474 109.741 13.3125C109.965 13.1458 110.077 12.9297 110.077 12.6641ZM129.995 11.2109C129.907 12.4349 129.454 13.3984 128.636 14.1016C127.823 14.8047 126.751 15.1562 125.417 15.1562C123.959 15.1562 122.81 14.6667 121.972 13.6875C121.139 12.7031 120.722 11.3542 120.722 9.64062V8.94531C120.722 7.85156 120.915 6.88802 121.3 6.05469C121.685 5.22135 122.235 4.58333 122.948 4.14062C123.667 3.69271 124.501 3.46875 125.448 3.46875C126.761 3.46875 127.818 3.82031 128.62 4.52344C129.422 5.22656 129.886 6.21354 130.011 7.48438H127.667C127.61 6.75 127.404 6.21875 127.05 5.89062C126.701 5.55729 126.167 5.39062 125.448 5.39062C124.667 5.39062 124.081 5.67188 123.691 6.23438C123.305 6.79167 123.107 7.65885 123.097 8.83594V9.69531C123.097 10.9245 123.282 11.8229 123.652 12.3906C124.027 12.9583 124.615 13.2422 125.417 13.2422C126.141 13.2422 126.68 13.0781 127.034 12.75C127.394 12.4167 127.599 11.9036 127.652 11.2109H129.995ZM137.884 15C137.78 14.7969 137.705 14.5443 137.658 14.2422C137.111 14.8516 136.4 15.1562 135.525 15.1562C134.697 15.1562 134.009 14.9167 133.463 14.4375C132.921 13.9583 132.65 13.3542 132.65 12.625C132.65 11.7292 132.981 11.0417 133.642 10.5625C134.309 10.0833 135.27 9.84115 136.525 9.83594H137.564V9.35156C137.564 8.96094 137.463 8.64844 137.259 8.41406C137.061 8.17969 136.746 8.0625 136.314 8.0625C135.934 8.0625 135.634 8.15365 135.416 8.33594C135.202 8.51823 135.095 8.76823 135.095 9.08594H132.838C132.838 8.59635 132.989 8.14323 133.291 7.72656C133.593 7.3099 134.02 6.98438 134.572 6.75C135.124 6.51042 135.744 6.39062 136.431 6.39062C137.473 6.39062 138.298 6.65365 138.908 7.17969C139.522 7.70052 139.83 8.4349 139.83 9.38281V13.0469C139.835 13.849 139.947 14.4557 140.166 14.8672V15H137.884ZM136.017 13.4297C136.351 13.4297 136.658 13.3568 136.939 13.2109C137.22 13.0599 137.429 12.8594 137.564 12.6094V11.1562H136.72C135.59 11.1562 134.989 11.5469 134.916 12.3281L134.908 12.4609C134.908 12.7422 135.007 12.974 135.205 13.1562C135.403 13.3385 135.673 13.4297 136.017 13.4297ZM145.555 6.54688V15.4609C145.555 16.3932 145.307 17.1172 144.812 17.6328C144.318 18.1536 143.604 18.4141 142.672 18.4141C142.281 18.4141 141.909 18.3698 141.555 18.2812V16.4922C141.826 16.5391 142.062 16.5625 142.266 16.5625C142.948 16.5625 143.289 16.2005 143.289 15.4766V6.54688H145.555ZM143.109 4.35938C143.109 4.02083 143.221 3.74219 143.445 3.52344C143.674 3.30469 143.984 3.19531 144.375 3.19531C144.766 3.19531 145.073 3.30469 145.297 3.52344C145.526 3.74219 145.641 4.02083 145.641 4.35938C145.641 4.70312 145.523 4.98438 145.289 5.20312C145.06 5.42188 144.755 5.53125 144.375 5.53125C143.995 5.53125 143.688 5.42188 143.453 5.20312C143.224 4.98438 143.109 4.70312 143.109 4.35938ZM153.983 14.1406C153.426 14.8177 152.655 15.1562 151.67 15.1562C150.764 15.1562 150.071 14.8958 149.592 14.375C149.118 13.8542 148.876 13.0911 148.866 12.0859V6.54688H151.123V12.0078C151.123 12.888 151.524 13.3281 152.327 13.3281C153.092 13.3281 153.618 13.0625 153.905 12.5312V6.54688H156.17V15H154.045L153.983 14.1406ZM161.552 6.54688L161.622 7.52344C162.226 6.76823 163.036 6.39062 164.052 6.39062C164.947 6.39062 165.614 6.65365 166.052 7.17969C166.489 7.70573 166.713 8.49219 166.723 9.53906V15H164.466V9.59375C164.466 9.11458 164.361 8.76823 164.153 8.55469C163.945 8.33594 163.598 8.22656 163.114 8.22656C162.479 8.22656 162.002 8.4974 161.684 9.03906V15H159.427V6.54688H161.552ZM179.338 10.4375L178.119 11.75V15H175.775V3.625H178.119V8.78125L179.15 7.36719L182.048 3.625H184.931L180.892 8.67969L185.048 15H182.259L179.338 10.4375ZM189.766 15H187.5V6.54688H189.766V15ZM187.367 4.35938C187.367 4.02083 187.479 3.74219 187.703 3.52344C187.932 3.30469 188.242 3.19531 188.633 3.19531C189.018 3.19531 189.326 3.30469 189.555 3.52344C189.784 3.74219 189.898 4.02083 189.898 4.35938C189.898 4.70312 189.781 4.98438 189.547 5.20312C189.318 5.42188 189.013 5.53125 188.633 5.53125C188.253 5.53125 187.945 5.42188 187.711 5.20312C187.482 4.98438 187.367 4.70312 187.367 4.35938ZM195.936 4.46875V6.54688H197.381V8.20312H195.936V12.4219C195.936 12.7344 195.996 12.9583 196.116 13.0938C196.235 13.2292 196.465 13.2969 196.803 13.2969C197.053 13.2969 197.274 13.2786 197.467 13.2422V14.9531C197.024 15.0885 196.569 15.1562 196.1 15.1562C194.517 15.1562 193.709 14.3568 193.678 12.7578V8.20312H192.444V6.54688H193.678V4.46875H195.936ZM203.755 13.3359C204.171 13.3359 204.51 13.2214 204.77 12.9922C205.031 12.763 205.166 12.4583 205.177 12.0781H207.294C207.289 12.651 207.132 13.1771 206.825 13.6562C206.518 14.1302 206.096 14.5 205.559 14.7656C205.028 15.026 204.44 15.1562 203.794 15.1562C202.585 15.1562 201.632 14.7734 200.934 14.0078C200.236 13.237 199.887 12.1745 199.887 10.8203V10.6719C199.887 9.36979 200.234 8.33073 200.927 7.55469C201.619 6.77865 202.57 6.39062 203.778 6.39062C204.835 6.39062 205.682 6.69271 206.317 7.29688C206.958 7.89583 207.283 8.69531 207.294 9.69531H205.177C205.166 9.25781 205.031 8.90365 204.77 8.63281C204.51 8.35677 204.166 8.21875 203.739 8.21875C203.213 8.21875 202.815 8.41146 202.544 8.79688C202.278 9.17708 202.145 9.79688 202.145 10.6562V10.8906C202.145 11.7604 202.278 12.3854 202.544 12.7656C202.809 13.1458 203.213 13.3359 203.755 13.3359ZM212.386 7.46875C212.985 6.75 213.738 6.39062 214.644 6.39062C216.477 6.39062 217.407 7.45573 217.433 9.58594V15H215.175V9.64844C215.175 9.16406 215.071 8.80729 214.863 8.57812C214.654 8.34375 214.308 8.22656 213.823 8.22656C213.162 8.22656 212.683 8.48177 212.386 8.99219V15H210.128V3H212.386V7.46875ZM224.627 15.1562C223.387 15.1562 222.377 14.776 221.595 14.0156C220.819 13.2552 220.431 12.2422 220.431 10.9766V10.7578C220.431 9.90885 220.595 9.15104 220.923 8.48438C221.252 7.8125 221.715 7.29688 222.314 6.9375C222.918 6.57292 223.606 6.39062 224.377 6.39062C225.533 6.39062 226.442 6.75521 227.103 7.48438C227.77 8.21354 228.103 9.2474 228.103 10.5859V11.5078H222.72C222.793 12.0599 223.012 12.5026 223.377 12.8359C223.746 13.1693 224.212 13.3359 224.775 13.3359C225.645 13.3359 226.324 13.0208 226.814 12.3906L227.923 13.6328C227.585 14.112 227.127 14.487 226.548 14.7578C225.97 15.0234 225.33 15.1562 224.627 15.1562ZM224.369 8.21875C223.921 8.21875 223.556 8.36979 223.275 8.67188C222.999 8.97396 222.822 9.40625 222.744 9.96875H225.884V9.78906C225.874 9.28906 225.739 8.90365 225.478 8.63281C225.218 8.35677 224.848 8.21875 224.369 8.21875ZM233.07 6.54688L233.141 7.52344C233.745 6.76823 234.555 6.39062 235.57 6.39062C236.466 6.39062 237.133 6.65365 237.57 7.17969C238.008 7.70573 238.232 8.49219 238.242 9.53906V15H235.984V9.59375C235.984 9.11458 235.88 8.76823 235.672 8.55469C235.464 8.33594 235.117 8.22656 234.633 8.22656C233.997 8.22656 233.521 8.4974 233.203 9.03906V15H230.945V6.54688H233.07Z" fill="white"/>
</g>
<path d="M137.128 31.4636C137.128 32.6023 137.249 33.6476 137.492 34.5996C137.735 35.5516 138.033 36.4336 138.388 37.2456L137.646 37.6656C137.058 36.6296 136.601 35.6123 136.274 34.6136C135.957 33.6056 135.798 32.5556 135.798 31.4636C135.798 30.3063 135.961 29.2283 136.288 28.2296C136.615 27.2309 137.067 26.2416 137.646 25.2616L138.388 25.6816C138.033 26.4749 137.735 27.3523 137.492 28.3136C137.249 29.2749 137.128 30.3249 137.128 31.4636ZM146.869 33.8576V35.9436H145.609V33.8576H141.423V32.8496L144.349 26.0456L145.441 26.5076L142.795 32.7096H145.609V29.9236H146.869V32.7096H148.031V33.8576H146.869ZM151.414 35.1736C151.414 34.8843 151.493 34.6556 151.652 34.4876C151.82 34.3196 152.053 34.2356 152.352 34.2356C152.594 34.2356 152.809 34.3289 152.996 34.5156C153.192 34.7023 153.29 34.9216 153.29 35.1736C153.29 35.4536 153.201 35.6823 153.024 35.8596C152.846 36.0276 152.622 36.1116 152.352 36.1116C152.1 36.1116 151.88 36.0183 151.694 35.8316C151.507 35.6449 151.414 35.4256 151.414 35.1736ZM162.989 32.9056C162.989 33.3723 162.905 33.8016 162.737 34.1936C162.578 34.5856 162.345 34.9263 162.037 35.2156C161.738 35.4956 161.379 35.7149 160.959 35.8736C160.539 36.0323 160.072 36.1116 159.559 36.1116C158.98 36.1116 158.486 36.0509 158.075 35.9296C157.674 35.7989 157.305 35.6169 156.969 35.3836L157.627 34.3056C157.888 34.4923 158.178 34.6509 158.495 34.7816C158.812 34.9029 159.172 34.9636 159.573 34.9636C159.881 34.9636 160.161 34.9169 160.413 34.8236C160.674 34.7303 160.894 34.5996 161.071 34.4316C161.258 34.2543 161.402 34.0489 161.505 33.8156C161.608 33.5823 161.659 33.3256 161.659 33.0456C161.659 32.4576 161.458 31.9816 161.057 31.6176C160.665 31.2536 160.1 31.0716 159.363 31.0716H157.627V26.1436H162.471V27.2776H158.817V29.9376H159.517C160.058 29.9376 160.544 30.0123 160.973 30.1616C161.402 30.3016 161.766 30.5069 162.065 30.7776C162.364 31.0389 162.592 31.3516 162.751 31.7156C162.91 32.0796 162.989 32.4763 162.989 32.9056ZM167.576 31.4636C167.576 30.3249 167.454 29.2749 167.212 28.3136C166.969 27.3523 166.67 26.4749 166.316 25.6816L167.058 25.2616C167.347 25.7563 167.604 26.2463 167.828 26.7316C168.061 27.2169 168.257 27.7163 168.416 28.2296C168.574 28.7336 168.696 29.2563 168.78 29.7976C168.864 30.3296 168.906 30.8849 168.906 31.4636C168.906 32.5556 168.742 33.6056 168.416 34.6136C168.098 35.6123 167.646 36.6296 167.058 37.6656L166.316 37.2456C166.67 36.4336 166.969 35.5516 167.212 34.5996C167.454 33.6476 167.576 32.6023 167.576 31.4636Z" fill="white"/>
<path fill-rule="evenodd" clip-rule="evenodd" d="M124.76 25.9365L126.68 29.3678L130.52 30.143L127.866 33.0385L128.32 36.9495L124.76 35.3073L121.2 36.9495L121.654 33.0385L119 30.143L122.84 29.3678L124.76 25.9365Z" fill="#FFC220" stroke="white"/>
<path fill-rule="evenodd" clip-rule="evenodd" d="M110.76 25.9365L112.68 29.3678L116.52 30.143L113.866 33.0385L114.32 36.9495L110.76 35.3073L107.2 36.9495L107.654 33.0385L105 30.143L108.84 29.3678L110.76 25.9365Z" fill="#FFC220" stroke="white"/>
<path fill-rule="evenodd" clip-rule="evenodd" d="M96.7602 25.8965L98.6802 29.3277L102.52 30.103L99.866 32.9984L100.32 36.9095L96.7601 35.2672L93.2004 36.9095L93.6542 32.9984L91 30.103L94.84 29.3277L96.7602 25.8965Z" fill="#FFC220" stroke="white"/>
<path fill-rule="evenodd" clip-rule="evenodd" d="M82.7602 25.8965L84.6802 29.3277L88.5202 30.103L85.866 32.9984L86.3198 36.9095L82.7601 35.2672L79.2004 36.9095L79.6542 32.9984L77 30.103L80.84 29.3277L82.7602 25.8965Z" fill="#FFC220" stroke="white"/>
<path fill-rule="evenodd" clip-rule="evenodd" d="M68.7602 25.8965L70.6802 29.3277L74.5202 30.103L71.866 32.9984L72.3198 36.9095L68.7601 35.2672L65.2004 36.9095L65.6542 32.9984L63 30.103L66.84 29.3277L68.7602 25.8965Z" fill="#FFC220" stroke="white"/>
<path d="M53.799 31.4639V32.7222H56.9093C56.593 34.4838 55.1169 35.7421 53.2718 35.7421C51.1104 35.7421 49.3179 34.0308 49.3179 31.9672C49.3179 29.9036 51.1104 28.1924 53.2718 28.1924C54.3789 28.1924 55.3278 28.6453 56.0131 29.35L56.9621 28.444C56.0131 27.5381 54.7479 26.9341 53.2718 26.9341C50.3723 26.9341 48 29.199 48 31.9672C48 34.7354 50.3723 37.0003 53.2718 37.0003C56.1713 37.0003 58.28 34.7354 58.28 31.9672V31.4639H53.799Z" fill="white"/>
<mask id="mask0" style="mask-type:alpha" maskUnits="userSpaceOnUse" x="118" y="24" width="14" height="14">
<path fill-rule="evenodd" clip-rule="evenodd" d="M124.76 25.9363L126.68 29.3675L130.52 30.1428L127.866 33.0382L128.32 36.9493L124.76 35.307L121.2 36.9493L121.654 33.0382L119 30.1428L122.84 29.3675L124.76 25.9363Z" fill="#FFC220" stroke="white"/>
</mask>
<g mask="url(#mask0)">
<rect x="124.7" y="24.939" width="8" height="13.9656" fill="white"/>
</g>
<rect x="0.5" y="1.5" width="35" height="35" rx="17.5" fill="#2AA8BC" fill-opacity="0.88" stroke="#C5CEE0"/>
<g clip-path="url(#clip0)">
<path d="M22.8668 17.0243L24.0419 16.9497C24.0439 16.9495 24.046 16.9494 24.0482 16.9492C24.8856 16.8784 25.6372 16.4389 26.1106 15.7429L27.0395 14.3774C27.8481 13.1885 28.1614 11.7526 27.9213 10.3343C27.8742 10.0557 27.732 9.79901 27.5211 9.61173C27.3101 9.42429 27.0388 9.3136 26.7571 9.30015C25.3224 9.23135 23.9377 9.71523 22.8568 10.6621L21.615 11.7498C20.9822 12.3041 20.6368 13.1044 20.667 13.9461C20.6671 13.948 20.6671 13.9502 20.6673 13.9523L20.7343 15.13C20.7604 15.5891 20.5924 16.0421 20.2742 16.3721L10.573 26.3577C10.3133 26.6291 10.1791 27.0013 10.1955 27.406C10.2135 27.8515 10.4175 28.2891 10.7413 28.5767C11.0338 28.8364 11.4358 28.9844 11.8378 28.9844C11.8808 28.9844 11.9238 28.9828 11.9667 28.9792C12.3697 28.947 12.7226 28.769 12.9616 28.4764L21.6907 17.6315C21.9802 17.2747 22.4089 17.0533 22.8668 17.0243V17.0243ZM21.2247 17.2536L12.4963 28.0975C12.363 28.2608 12.1579 28.3614 11.9189 28.3805C11.6347 28.4033 11.3432 28.3085 11.1391 28.1272C10.9349 27.9457 10.8061 27.6672 10.7947 27.3817C10.7849 27.1418 10.8598 26.9258 11.0042 26.7751L20.7047 16.7902C21.1395 16.3393 21.3684 15.7218 21.333 15.0959L21.266 13.9213C21.2433 13.2625 21.5141 12.6361 22.0096 12.2021L23.2514 11.1143C24.2151 10.2702 25.4502 9.83922 26.7285 9.90007C26.8741 9.90711 27.0142 9.96429 27.1233 10.0612C27.2324 10.158 27.3058 10.2907 27.3302 10.4346C27.5441 11.6991 27.2649 12.9791 26.5441 14.0389L25.6151 15.4046C25.2445 15.9495 24.6562 16.2939 24.0007 16.3504L22.8288 16.4247C22.2045 16.4644 21.62 16.7662 21.2247 17.2536Z" fill="white"/>
<path d="M27.4461 26.2825L20.9415 20.3464C20.8191 20.2347 20.6296 20.2435 20.5179 20.3661C20.4065 20.4888 20.4153 20.6788 20.5377 20.7906L27.0407 26.7253C27.1954 26.8686 27.2832 27.0797 27.2879 27.3197C27.2936 27.6053 27.1817 27.8911 26.9887 28.0845C26.7958 28.2777 26.5111 28.3901 26.2254 28.3843C25.9859 28.3795 25.7752 28.2916 25.6337 28.1383L19.8375 21.7623C19.7259 21.6395 19.5363 21.6308 19.4139 21.7424C19.2915 21.8542 19.2827 22.0442 19.3942 22.1668L25.1918 28.5444C25.4466 28.8205 25.8095 28.977 26.2137 28.985C26.2242 28.9851 26.2346 28.9853 26.2451 28.9853C26.6795 28.9853 27.114 28.8087 27.4126 28.5093C27.7187 28.2027 27.8961 27.7536 27.8873 27.308C27.8793 26.903 27.7232 26.5394 27.4461 26.2825V26.2825Z" fill="white"/>
<path d="M11.6175 16.9678C12.1138 17.4259 12.7584 17.687 13.4329 17.7032C13.435 17.7034 13.4372 17.7034 13.4391 17.7034L14.6165 17.707C15.0755 17.7084 15.5166 17.9036 15.8262 18.2417L16.3449 18.8121C16.4041 18.8772 16.4851 18.9102 16.5666 18.9102C16.6386 18.9102 16.7109 18.8844 16.7683 18.832C16.8908 18.7202 16.8997 18.5302 16.7881 18.4076L16.2687 17.8364C15.8458 17.3743 15.2443 17.1083 14.6185 17.1062L13.4443 17.1025C12.9226 17.0892 12.4238 16.8891 12.0373 16.5385L8.62528 12.4745C8.59049 12.4329 8.59309 12.3727 8.63139 12.3343C8.65763 12.3078 8.68846 12.304 8.70448 12.304C8.7205 12.304 8.75132 12.3078 8.77772 12.3343L11.8835 15.4463C12.1905 15.7539 12.6901 15.7539 12.9971 15.4461L13.3621 15.0806V15.0804L14.0101 14.4311C14.0101 14.4311 14.0103 14.4311 14.0103 14.431L14.0104 14.4308L14.3753 14.0653C14.6823 13.7577 14.6823 13.2571 14.3753 12.9495L11.2695 9.83765C11.2292 9.79729 11.2292 9.73139 11.2695 9.69103C11.3078 9.65266 11.3679 9.65006 11.4094 9.68492L15.4655 13.1038C15.8155 13.4909 16.0153 13.9908 16.0286 14.5134L16.0321 15.69C16.0342 16.3168 16.2999 16.9195 16.7616 17.3442L17.3173 17.8513C17.4399 17.9631 17.6294 17.9542 17.7409 17.8316C17.8523 17.7089 17.8434 17.519 17.7211 17.4072L17.1663 16.9009C16.828 16.5899 16.6333 16.1477 16.6317 15.688L16.6281 14.5083C16.6281 14.5062 16.6281 14.5041 16.6279 14.5019C16.6118 13.8262 16.3511 13.1802 15.894 12.683C15.8854 12.6737 15.8763 12.6648 15.8665 12.6566L11.7953 9.22519C11.5139 8.98791 11.1056 9.00564 10.8456 9.26616C10.5714 9.5409 10.5714 9.98778 10.8456 10.2624L13.9514 13.3744C14.0246 13.4478 14.0246 13.5672 13.9514 13.6405L13.7983 13.7937L10.3369 10.3257C10.2198 10.2082 10.03 10.2082 9.91298 10.3257C9.79594 10.4429 9.79594 10.6331 9.91298 10.7504L13.3744 14.2186L13.1501 14.4432L9.68867 10.9751C9.57164 10.8579 9.38182 10.8579 9.26478 10.9751C9.14759 11.0924 9.14759 11.2826 9.26478 11.3998L12.7261 14.8681L12.5732 15.0214C12.5 15.0948 12.3808 15.0948 12.3075 15.0214L9.20161 11.9096C9.06886 11.7766 8.89231 11.7032 8.70448 11.7032C8.51664 11.7032 8.3401 11.7766 8.20734 11.9096C7.94733 12.1701 7.92979 12.5792 8.16645 12.8613L11.5913 16.9403C11.5994 16.9501 11.6082 16.9593 11.6175 16.9678Z" fill="white"/>
</g>
<defs>
<filter id="filter0_d" x="45.0156" y="3" width="197.227" height="23.4141" filterUnits="userSpaceOnUse" color-interpolation-filters="sRGB">
<feFlood flood-opacity="0" result="BackgroundImageFix"/>
<feColorMatrix in="SourceAlpha" type="matrix" values="0 0 0 0 0 0 0 0 0 0 0 0 0 0 0 0 0 0 127 0" result="hardAlpha"/>
<feOffset dy="4"/>
<feGaussianBlur stdDeviation="2"/>
<feColorMatrix type="matrix" values="0 0 0 0 0 0 0 0 0 0 0 0 0 0 0 0 0 0 0.25 0"/>
<feBlend mode="normal" in2="BackgroundImageFix" result="effect1_dropShadow"/>
<feBlend mode="normal" in="SourceGraphic" in2="effect1_dropShadow" result="shape"/>
</filter>
<clipPath id="clip0">
<rect width="20" height="20" fill="white" transform="translate(8 9)"/>
</clipPath>
</defs>
</svg>
