<svg width="307" height="40" viewBox="0 0 307 40" fill="none" xmlns="http://www.w3.org/2000/svg">
<g filter="url(#filter0_d)">
<path d="M48.8887 13V3.04688H51.9512C52.8262 3.04688 53.6077 3.24512 54.2959 3.6416C54.9886 4.03353 55.5286 4.59408 55.916 5.32324C56.3034 6.04785 56.4971 6.87272 56.4971 7.79785V8.25586C56.4971 9.18099 56.3057 10.0036 55.9229 10.7236C55.5446 11.4437 55.0091 12.002 54.3164 12.3984C53.6237 12.7949 52.8421 12.9954 51.9717 13H48.8887ZM50.9395 4.70801V11.3525H51.9307C52.7327 11.3525 53.3457 11.0905 53.7695 10.5664C54.1934 10.0423 54.4098 9.29264 54.4189 8.31738V7.79102C54.4189 6.7793 54.2093 6.01367 53.79 5.49414C53.3708 4.97005 52.7578 4.70801 51.9512 4.70801H50.9395ZM63.5504 13C63.4592 12.8223 63.3932 12.6012 63.3521 12.3369C62.8736 12.8701 62.2516 13.1367 61.4859 13.1367C60.7613 13.1367 60.1598 12.9271 59.6812 12.5078C59.2073 12.0885 58.9703 11.5599 58.9703 10.9219C58.9703 10.138 59.2597 9.53646 59.8385 9.11719C60.4218 8.69792 61.2626 8.486 62.3609 8.48145H63.2701V8.05762C63.2701 7.71582 63.1812 7.44238 63.0035 7.2373C62.8303 7.03223 62.5546 6.92969 62.1764 6.92969C61.8437 6.92969 61.5816 7.00944 61.3902 7.16895C61.2034 7.32845 61.11 7.5472 61.11 7.8252H59.1344C59.1344 7.39681 59.2665 7.00033 59.5309 6.63574C59.7952 6.27116 60.1689 5.98633 60.652 5.78125C61.135 5.57161 61.6773 5.4668 62.2789 5.4668C63.1904 5.4668 63.9127 5.69694 64.4459 6.15723C64.9837 6.61296 65.2525 7.25553 65.2525 8.08496V11.291C65.2571 11.9928 65.3551 12.5238 65.5465 12.8838V13H63.5504ZM61.9166 11.626C62.2083 11.626 62.4771 11.5622 62.7232 11.4346C62.9693 11.3024 63.1516 11.127 63.2701 10.9082V9.63672H62.5318C61.5429 9.63672 61.0165 9.97852 60.9527 10.6621L60.9459 10.7783C60.9459 11.0244 61.0325 11.2272 61.2057 11.3867C61.3788 11.5462 61.6158 11.626 61.9166 11.626ZM67.8625 9.24707C67.8625 8.09408 68.12 7.17578 68.635 6.49219C69.1545 5.80859 69.8632 5.4668 70.7609 5.4668C71.481 5.4668 72.0757 5.73568 72.5451 6.27344V2.5H74.5275V13H72.7434L72.6477 12.2139C72.1555 12.8291 71.522 13.1367 70.7473 13.1367C69.8768 13.1367 69.1773 12.7949 68.6486 12.1113C68.1245 11.4232 67.8625 10.4684 67.8625 9.24707ZM69.8381 9.39062C69.8381 10.0833 69.9589 10.6143 70.2004 10.9834C70.4419 11.3525 70.7928 11.5371 71.2531 11.5371C71.8638 11.5371 72.2945 11.2796 72.5451 10.7646V7.8457C72.299 7.33073 71.8729 7.07324 71.2668 7.07324C70.3143 7.07324 69.8381 7.8457 69.8381 9.39062ZM77.1512 9.24707C77.1512 8.09408 77.4087 7.17578 77.9236 6.49219C78.4432 5.80859 79.1518 5.4668 80.0496 5.4668C80.7697 5.4668 81.3644 5.73568 81.8338 6.27344V2.5H83.8162V13H82.032L81.9363 12.2139C81.4441 12.8291 80.8107 13.1367 80.0359 13.1367C79.1655 13.1367 78.466 12.7949 77.9373 12.1113C77.4132 11.4232 77.1512 10.4684 77.1512 9.24707ZM79.1268 9.39062C79.1268 10.0833 79.2475 10.6143 79.4891 10.9834C79.7306 11.3525 80.0815 11.5371 80.5418 11.5371C81.1525 11.5371 81.5831 11.2796 81.8338 10.7646V7.8457C81.5877 7.33073 81.1616 7.07324 80.5555 7.07324C79.603 7.07324 79.1268 7.8457 79.1268 9.39062ZM89.5092 10.2041L90.8764 5.60352H92.9955L90.0219 14.1484L89.8578 14.5381C89.4158 15.5042 88.6866 15.9873 87.6703 15.9873C87.3832 15.9873 87.0915 15.944 86.7953 15.8574V14.3604L87.0961 14.3672C87.4698 14.3672 87.7478 14.3102 87.9301 14.1963C88.1169 14.0824 88.2628 13.8932 88.3676 13.6289L88.6 13.0205L86.0092 5.60352H88.1352L89.5092 10.2041ZM95.8516 6.10254L94.9219 5.5625C95.3138 4.94727 95.5166 4.31152 95.5303 3.65527V2.5H97.1025V3.55957C97.1025 3.96973 96.9886 4.41406 96.7607 4.89258C96.5329 5.37109 96.2298 5.77441 95.8516 6.10254ZM102.317 10.9561C102.317 10.7145 102.196 10.5254 101.955 10.3887C101.718 10.2474 101.335 10.1221 100.806 10.0127C99.0471 9.64355 98.1676 8.89616 98.1676 7.77051C98.1676 7.11426 98.4387 6.56738 98.9811 6.12988C99.5279 5.68783 100.241 5.4668 101.121 5.4668C102.06 5.4668 102.809 5.68783 103.37 6.12988C103.935 6.57194 104.217 7.14616 104.217 7.85254H102.242C102.242 7.56999 102.151 7.33757 101.968 7.15527C101.786 6.96842 101.501 6.875 101.114 6.875C100.781 6.875 100.524 6.9502 100.341 7.10059C100.159 7.25098 100.068 7.44238 100.068 7.6748C100.068 7.89355 100.171 8.07129 100.376 8.20801C100.585 8.34017 100.936 8.45638 101.428 8.55664C101.921 8.65234 102.335 8.76172 102.672 8.88477C103.716 9.26758 104.238 9.93066 104.238 10.874C104.238 11.5485 103.949 12.0954 103.37 12.5146C102.791 12.9294 102.044 13.1367 101.128 13.1367C100.508 13.1367 99.9563 13.0273 99.4732 12.8086C98.9947 12.5853 98.6188 12.2822 98.3453 11.8994C98.0719 11.512 97.9352 11.0951 97.9352 10.6484H99.8082C99.8264 10.9993 99.9563 11.2682 100.198 11.4551C100.439 11.6419 100.763 11.7354 101.169 11.7354C101.547 11.7354 101.832 11.6647 102.023 11.5234C102.219 11.3776 102.317 11.1885 102.317 10.9561ZM119.746 9.68457C119.668 10.7555 119.272 11.5986 118.556 12.2139C117.846 12.8291 116.907 13.1367 115.74 13.1367C114.464 13.1367 113.459 12.7083 112.725 11.8516C111.996 10.9902 111.632 9.8099 111.632 8.31055V7.70215C111.632 6.74512 111.8 5.90202 112.138 5.17285C112.475 4.44368 112.956 3.88542 113.58 3.49805C114.209 3.10612 114.938 2.91016 115.767 2.91016C116.916 2.91016 117.841 3.21777 118.543 3.83301C119.245 4.44824 119.65 5.31185 119.76 6.42383H117.709C117.659 5.78125 117.479 5.31641 117.169 5.0293C116.863 4.73763 116.396 4.5918 115.767 4.5918C115.084 4.5918 114.571 4.83789 114.229 5.33008C113.892 5.81771 113.719 6.5765 113.71 7.60645V8.3584C113.71 9.43392 113.872 10.2201 114.195 10.7168C114.523 11.2135 115.038 11.4619 115.74 11.4619C116.374 11.4619 116.845 11.3184 117.155 11.0312C117.47 10.7396 117.65 10.2907 117.695 9.68457H119.746ZM126.649 13C126.558 12.8223 126.492 12.6012 126.451 12.3369C125.972 12.8701 125.35 13.1367 124.584 13.1367C123.86 13.1367 123.258 12.9271 122.78 12.5078C122.306 12.0885 122.069 11.5599 122.069 10.9219C122.069 10.138 122.358 9.53646 122.937 9.11719C123.52 8.69792 124.361 8.486 125.459 8.48145H126.369V8.05762C126.369 7.71582 126.28 7.44238 126.102 7.2373C125.929 7.03223 125.653 6.92969 125.275 6.92969C124.942 6.92969 124.68 7.00944 124.489 7.16895C124.302 7.32845 124.208 7.5472 124.208 7.8252H122.233C122.233 7.39681 122.365 7.00033 122.629 6.63574C122.894 6.27116 123.267 5.98633 123.75 5.78125C124.233 5.57161 124.776 5.4668 125.377 5.4668C126.289 5.4668 127.011 5.69694 127.544 6.15723C128.082 6.61296 128.351 7.25553 128.351 8.08496V11.291C128.356 11.9928 128.454 12.5238 128.645 12.8838V13H126.649ZM125.015 11.626C125.307 11.626 125.576 11.5622 125.822 11.4346C126.068 11.3024 126.25 11.127 126.369 10.9082V9.63672H125.63C124.641 9.63672 124.115 9.97852 124.051 10.6621L124.044 10.7783C124.044 11.0244 124.131 11.2272 124.304 11.3867C124.477 11.5462 124.714 11.626 125.015 11.626ZM133.36 5.60352V13.4033C133.36 14.2191 133.144 14.8525 132.711 15.3037C132.278 15.7594 131.654 15.9873 130.838 15.9873C130.496 15.9873 130.17 15.9486 129.86 15.8711V14.3057C130.097 14.3467 130.305 14.3672 130.482 14.3672C131.079 14.3672 131.378 14.0505 131.378 13.417V5.60352H133.36ZM131.221 3.68945C131.221 3.39323 131.319 3.14941 131.515 2.95801C131.715 2.7666 131.986 2.6709 132.328 2.6709C132.67 2.6709 132.939 2.7666 133.135 2.95801C133.335 3.14941 133.436 3.39323 133.436 3.68945C133.436 3.99023 133.333 4.23633 133.128 4.42773C132.927 4.61914 132.661 4.71484 132.328 4.71484C131.995 4.71484 131.727 4.61914 131.521 4.42773C131.321 4.23633 131.221 3.99023 131.221 3.68945ZM140.735 12.248C140.247 12.8405 139.573 13.1367 138.712 13.1367C137.919 13.1367 137.312 12.9089 136.893 12.4531C136.478 11.9974 136.267 11.3298 136.257 10.4502V5.60352H138.233V10.3818C138.233 11.152 138.584 11.5371 139.286 11.5371C139.956 11.5371 140.416 11.3047 140.667 10.8398V5.60352H142.649V13H140.79L140.735 12.248ZM147.358 5.60352L147.419 6.45801C147.948 5.7972 148.656 5.4668 149.545 5.4668C150.329 5.4668 150.912 5.69694 151.295 6.15723C151.678 6.61751 151.874 7.30566 151.883 8.22168V13H149.907V8.26953C149.907 7.85026 149.816 7.5472 149.634 7.36035C149.452 7.16895 149.149 7.07324 148.725 7.07324C148.169 7.07324 147.752 7.31022 147.474 7.78418V13H145.498V5.60352H147.358ZM162.92 9.00781L161.854 10.1562V13H159.803V3.04688H161.854V7.55859L162.756 6.32129L165.292 3.04688H167.815L164.281 7.46973L167.917 13H165.477L162.92 9.00781ZM170.062 12.0293C170.062 11.7148 170.167 11.4596 170.377 11.2637C170.591 11.0677 170.858 10.9697 171.177 10.9697C171.5 10.9697 171.767 11.0677 171.977 11.2637C172.191 11.4596 172.298 11.7148 172.298 12.0293C172.298 12.3392 172.193 12.5921 171.983 12.7881C171.774 12.9795 171.505 13.0752 171.177 13.0752C170.853 13.0752 170.587 12.9795 170.377 12.7881C170.167 12.5921 170.062 12.3392 170.062 12.0293ZM175.537 12.0293C175.537 11.7148 175.642 11.4596 175.851 11.2637C176.065 11.0677 176.332 10.9697 176.651 10.9697C176.975 10.9697 177.241 11.0677 177.451 11.2637C177.665 11.4596 177.772 11.7148 177.772 12.0293C177.772 12.3392 177.667 12.5921 177.458 12.7881C177.248 12.9795 176.979 13.0752 176.651 13.0752C176.327 13.0752 176.061 12.9795 175.851 12.7881C175.642 12.5921 175.537 12.3392 175.537 12.0293ZM181.011 12.0293C181.011 11.7148 181.116 11.4596 181.325 11.2637C181.54 11.0677 181.806 10.9697 182.125 10.9697C182.449 10.9697 182.715 11.0677 182.925 11.2637C183.139 11.4596 183.246 11.7148 183.246 12.0293C183.246 12.3392 183.141 12.5921 182.932 12.7881C182.722 12.9795 182.453 13.0752 182.125 13.0752C181.802 13.0752 181.535 12.9795 181.325 12.7881C181.116 12.5921 181.011 12.3392 181.011 12.0293Z" fill="white"/>
</g>
<path d="M129.824 33.16C129.824 34.136 129.928 35.032 130.136 35.848C130.344 36.664 130.6 37.42 130.904 38.116L130.268 38.476C129.764 37.588 129.372 36.716 129.092 35.86C128.82 34.996 128.684 34.096 128.684 33.16C128.684 32.168 128.824 31.244 129.104 30.388C129.384 29.532 129.772 28.684 130.268 27.844L130.904 28.204C130.6 28.884 130.344 29.636 130.136 30.46C129.928 31.284 129.824 32.184 129.824 33.16ZM138.174 35.212V37H137.094V35.212H133.506V34.348L136.014 28.516L136.95 28.912L134.682 34.228H137.094V31.84H138.174V34.228H139.17V35.212H138.174ZM142.069 36.34C142.069 36.092 142.137 35.896 142.273 35.752C142.417 35.608 142.617 35.536 142.873 35.536C143.081 35.536 143.265 35.616 143.425 35.776C143.593 35.936 143.677 36.124 143.677 36.34C143.677 36.58 143.601 36.776 143.449 36.928C143.297 37.072 143.105 37.144 142.873 37.144C142.657 37.144 142.469 37.064 142.309 36.904C142.149 36.744 142.069 36.556 142.069 36.34ZM151.991 34.396C151.991 34.796 151.919 35.164 151.775 35.5C151.639 35.836 151.439 36.128 151.175 36.376C150.919 36.616 150.611 36.804 150.251 36.94C149.891 37.076 149.491 37.144 149.051 37.144C148.555 37.144 148.131 37.092 147.779 36.988C147.435 36.876 147.119 36.72 146.831 36.52L147.395 35.596C147.619 35.756 147.867 35.892 148.139 36.004C148.411 36.108 148.719 36.16 149.063 36.16C149.327 36.16 149.567 36.12 149.783 36.04C150.007 35.96 150.195 35.848 150.347 35.704C150.507 35.552 150.631 35.376 150.719 35.176C150.807 34.976 150.851 34.756 150.851 34.516C150.851 34.012 150.679 33.604 150.335 33.292C149.999 32.98 149.515 32.824 148.883 32.824H147.395V28.6H151.547V29.572H148.415V31.852H149.015C149.479 31.852 149.895 31.916 150.263 32.044C150.631 32.164 150.943 32.34 151.199 32.572C151.455 32.796 151.651 33.064 151.787 33.376C151.923 33.688 151.991 34.028 151.991 34.396ZM155.922 33.16C155.922 32.184 155.818 31.284 155.61 30.46C155.402 29.636 155.146 28.884 154.842 28.204L155.478 27.844C155.726 28.268 155.946 28.688 156.138 29.104C156.338 29.52 156.506 29.948 156.642 30.388C156.778 30.82 156.882 31.268 156.954 31.732C157.026 32.188 157.062 32.664 157.062 33.16C157.062 34.096 156.922 34.996 156.642 35.86C156.37 36.716 155.982 37.588 155.478 38.476L154.842 38.116C155.146 37.42 155.402 36.664 155.61 35.848C155.818 35.032 155.922 34.136 155.922 33.16Z" fill="white"/>
<path fill-rule="evenodd" clip-rule="evenodd" d="M118.57 25.9365L120.335 29.3678L123.865 30.143L121.425 33.0385L121.842 36.9495L118.57 35.3073L115.297 36.9495L115.714 33.0385L113.274 30.143L116.805 29.3678L118.57 25.9365Z" fill="#FFC220" stroke="white"/>
<path fill-rule="evenodd" clip-rule="evenodd" d="M105.699 25.9365L107.464 29.3678L110.994 30.143L108.554 33.0385L108.971 36.9495L105.699 35.3073L102.426 36.9495L102.843 33.0385L100.403 30.143L103.934 29.3678L105.699 25.9365Z" fill="#FFC220" stroke="white"/>
<path fill-rule="evenodd" clip-rule="evenodd" d="M92.8279 25.8965L94.5931 29.3277L98.1234 30.103L95.6833 32.9984L96.1004 36.9095L92.8278 35.2672L89.5552 36.9095L89.9724 32.9984L87.5323 30.103L91.0626 29.3277L92.8279 25.8965Z" fill="#FFC220" stroke="white"/>
<path fill-rule="evenodd" clip-rule="evenodd" d="M79.9569 25.8965L81.7221 29.3277L85.2524 30.103L82.8123 32.9984L83.2295 36.9095L79.9569 35.2672L76.6842 36.9095L77.1014 32.9984L74.6613 30.103L78.1916 29.3277L79.9569 25.8965Z" fill="#FFC220" stroke="white"/>
<path fill-rule="evenodd" clip-rule="evenodd" d="M67.086 25.8965L68.8512 29.3277L72.3815 30.103L69.9414 32.9984L70.3585 36.9095L67.0859 35.2672L63.8133 36.9095L64.2304 32.9984L61.7903 30.103L65.3207 29.3277L67.086 25.8965Z" fill="#FFC220" stroke="white"/>
<path d="M53.3313 31.4639V32.7222H56.1908C55.9 34.4838 54.543 35.7421 52.8467 35.7421C50.8595 35.7421 49.2117 34.0308 49.2117 31.9672C49.2117 29.9036 50.8595 28.1924 52.8467 28.1924C53.8644 28.1924 54.7368 28.6453 55.3669 29.35L56.2393 28.444C55.3669 27.5381 54.2037 26.9341 52.8467 26.9341C50.181 26.9341 48 29.199 48 31.9672C48 34.7354 50.181 37.0003 52.8467 37.0003C55.5123 37.0003 57.451 34.7354 57.451 31.9672V31.4639H53.3313Z" fill="white"/>
<mask id="mask0" style="mask-type:alpha" maskUnits="userSpaceOnUse" x="112" y="24" width="13" height="14">
<path fill-rule="evenodd" clip-rule="evenodd" d="M118.57 25.9363L120.335 29.3675L123.865 30.1428L121.425 33.0382L121.842 36.9493L118.57 35.307L115.297 36.9493L115.714 33.0382L113.274 30.1428L116.805 29.3675L118.57 25.9363Z" fill="#FFC220" stroke="white"/>
</mask>
<g mask="url(#mask0)">
<rect x="118.514" y="24.939" width="7.35484" height="13.9656" fill="white"/>
</g>
<rect x="0.5" y="1.5" width="35" height="35" rx="17.5" fill="#2AA8BC" fill-opacity="0.88" stroke="#C5CEE0"/>
<g clip-path="url(#clip0)">
<path d="M22.8668 17.0243L24.0419 16.9497C24.0439 16.9495 24.046 16.9494 24.0482 16.9492C24.8856 16.8784 25.6372 16.4389 26.1106 15.7429L27.0395 14.3774C27.8481 13.1885 28.1614 11.7526 27.9213 10.3343C27.8742 10.0557 27.732 9.79901 27.5211 9.61173C27.3101 9.42429 27.0388 9.3136 26.7571 9.30015C25.3224 9.23135 23.9377 9.71523 22.8568 10.6621L21.615 11.7498C20.9822 12.3041 20.6368 13.1044 20.667 13.9461C20.6671 13.948 20.6671 13.9502 20.6673 13.9523L20.7343 15.13C20.7604 15.5891 20.5924 16.0421 20.2742 16.3721L10.573 26.3577C10.3133 26.6291 10.1791 27.0013 10.1955 27.406C10.2135 27.8515 10.4175 28.2891 10.7413 28.5767C11.0338 28.8364 11.4358 28.9844 11.8378 28.9844C11.8808 28.9844 11.9238 28.9828 11.9667 28.9792C12.3697 28.947 12.7226 28.769 12.9616 28.4764L21.6907 17.6315C21.9802 17.2747 22.4089 17.0533 22.8668 17.0243V17.0243ZM21.2247 17.2536L12.4963 28.0975C12.363 28.2608 12.1579 28.3614 11.9189 28.3805C11.6347 28.4033 11.3432 28.3085 11.1391 28.1272C10.9349 27.9457 10.8061 27.6672 10.7947 27.3817C10.7849 27.1418 10.8598 26.9258 11.0042 26.7751L20.7047 16.7902C21.1395 16.3393 21.3684 15.7218 21.333 15.0959L21.266 13.9213C21.2433 13.2625 21.5141 12.6361 22.0096 12.2021L23.2514 11.1143C24.2151 10.2702 25.4502 9.83922 26.7285 9.90007C26.8741 9.90711 27.0142 9.96429 27.1233 10.0612C27.2324 10.158 27.3058 10.2907 27.3302 10.4346C27.5441 11.6991 27.2649 12.9791 26.5441 14.0389L25.6151 15.4046C25.2445 15.9495 24.6562 16.2939 24.0007 16.3504L22.8288 16.4247C22.2045 16.4644 21.62 16.7662 21.2247 17.2536Z" fill="white"/>
<path d="M27.4461 26.2825L20.9415 20.3464C20.8191 20.2347 20.6296 20.2435 20.5179 20.3661C20.4065 20.4888 20.4153 20.6788 20.5377 20.7906L27.0407 26.7253C27.1954 26.8686 27.2832 27.0797 27.2879 27.3197C27.2936 27.6053 27.1817 27.8911 26.9887 28.0845C26.7958 28.2777 26.5111 28.3901 26.2254 28.3843C25.9859 28.3795 25.7752 28.2916 25.6337 28.1383L19.8375 21.7623C19.7259 21.6395 19.5363 21.6308 19.4139 21.7424C19.2915 21.8542 19.2827 22.0442 19.3942 22.1668L25.1918 28.5444C25.4466 28.8205 25.8095 28.977 26.2137 28.985C26.2242 28.9851 26.2346 28.9853 26.2451 28.9853C26.6795 28.9853 27.114 28.8087 27.4126 28.5093C27.7187 28.2027 27.8961 27.7536 27.8873 27.308C27.8793 26.903 27.7232 26.5394 27.4461 26.2825V26.2825Z" fill="white"/>
<path d="M11.6175 16.9678C12.1138 17.4259 12.7584 17.687 13.4329 17.7032C13.435 17.7034 13.4372 17.7034 13.4391 17.7034L14.6165 17.707C15.0755 17.7084 15.5166 17.9036 15.8262 18.2417L16.3449 18.8121C16.4041 18.8772 16.4851 18.9102 16.5666 18.9102C16.6386 18.9102 16.7109 18.8844 16.7683 18.832C16.8908 18.7202 16.8997 18.5302 16.7881 18.4076L16.2687 17.8364C15.8458 17.3743 15.2443 17.1083 14.6185 17.1062L13.4443 17.1025C12.9226 17.0892 12.4238 16.8891 12.0373 16.5385L8.62528 12.4745C8.59049 12.4329 8.59309 12.3727 8.63139 12.3343C8.65763 12.3078 8.68846 12.304 8.70448 12.304C8.7205 12.304 8.75132 12.3078 8.77772 12.3343L11.8835 15.4463C12.1905 15.7539 12.6901 15.7539 12.9971 15.4461L13.3621 15.0806V15.0804L14.0101 14.4311C14.0101 14.4311 14.0103 14.4311 14.0103 14.431L14.0104 14.4308L14.3753 14.0653C14.6823 13.7577 14.6823 13.2571 14.3753 12.9495L11.2695 9.83765C11.2292 9.79729 11.2292 9.73139 11.2695 9.69103C11.3078 9.65266 11.3679 9.65006 11.4094 9.68492L15.4655 13.1038C15.8155 13.4909 16.0153 13.9908 16.0286 14.5134L16.0321 15.69C16.0342 16.3168 16.2999 16.9195 16.7616 17.3442L17.3173 17.8513C17.4399 17.9631 17.6294 17.9542 17.7409 17.8316C17.8523 17.7089 17.8434 17.519 17.7211 17.4072L17.1663 16.9009C16.828 16.5899 16.6333 16.1477 16.6317 15.688L16.6281 14.5083C16.6281 14.5062 16.6281 14.5041 16.6279 14.5019C16.6118 13.8262 16.3511 13.1802 15.894 12.683C15.8854 12.6737 15.8763 12.6648 15.8665 12.6566L11.7953 9.22519C11.5139 8.98791 11.1056 9.00564 10.8456 9.26616C10.5714 9.5409 10.5714 9.98778 10.8456 10.2624L13.9514 13.3744C14.0246 13.4478 14.0246 13.5672 13.9514 13.6405L13.7983 13.7937L10.3369 10.3257C10.2198 10.2082 10.03 10.2082 9.91298 10.3257C9.79594 10.4429 9.79594 10.6331 9.91298 10.7504L13.3744 14.2186L13.1501 14.4432L9.68867 10.9751C9.57164 10.8579 9.38182 10.8579 9.26478 10.9751C9.14759 11.0924 9.14759 11.2826 9.26478 11.3998L12.7261 14.8681L12.5732 15.0214C12.5 15.0948 12.3808 15.0948 12.3075 15.0214L9.20161 11.9096C9.06886 11.7766 8.89231 11.7032 8.70448 11.7032C8.51664 11.7032 8.3401 11.7766 8.20734 11.9096C7.94733 12.1701 7.92979 12.5792 8.16645 12.8613L11.5913 16.9403C11.5994 16.9501 11.6082 16.9593 11.6175 16.9678Z" fill="white"/>
</g>
<defs>
<filter id="filter0_d" x="44.8887" y="2.5" width="142.358" height="21.4873" filterUnits="userSpaceOnUse" color-interpolation-filters="sRGB">
<feFlood flood-opacity="0" result="BackgroundImageFix"/>
<feColorMatrix in="SourceAlpha" type="matrix" values="0 0 0 0 0 0 0 0 0 0 0 0 0 0 0 0 0 0 127 0" result="hardAlpha"/>
<feOffset dy="4"/>
<feGaussianBlur stdDeviation="2"/>
<feColorMatrix type="matrix" values="0 0 0 0 0 0 0 0 0 0 0 0 0 0 0 0 0 0 0.25 0"/>
<feBlend mode="normal" in2="BackgroundImageFix" result="effect1_dropShadow"/>
<feBlend mode="normal" in="SourceGraphic" in2="effect1_dropShadow" result="shape"/>
</filter>
<clipPath id="clip0">
<rect width="20" height="20" fill="white" transform="translate(8 9)"/>
</clipPath>
</defs>
</svg>
