<svg width="32" height="131" viewBox="0 0 32 131" fill="none" xmlns="http://www.w3.org/2000/svg">
<g filter="url(#filter0_d)">
<path d="M28 60.4372L18.0261 49V55.8237H15.9055C9.3302 55.8237 4 61.3977 4 68.2739V71.89L4.94189 70.8106C8.14423 67.1414 12.6754 65.0508 17.4258 65.0508H18.0261V71.8745L28 60.4372Z" fill="white"/>
</g>
<g filter="url(#filter1_d)">
<path d="M16.5 96C11.8132 96 8 99.5889 8 104C8 105.324 8.35177 106.637 9.0205 107.802L16.0352 119.742C16.1286 119.901 16.3065 120 16.5 120C16.6935 120 16.8714 119.901 16.9648 119.742L23.9821 107.798C24.6482 106.637 25 105.324 25 104C25 99.5889 21.1868 96 16.5 96ZM16.5 108C14.1566 108 12.25 106.206 12.25 104C12.25 101.794 14.1566 100 16.5 100C18.8434 100 20.75 101.794 20.75 104C20.75 106.206 18.8434 108 16.5 108Z" fill="white"/>
</g>
<path d="M9.67969 128.757H5.95312V128.237L7.92188 126.05C8.21354 125.719 8.41406 125.451 8.52344 125.245C8.63542 125.037 8.69141 124.822 8.69141 124.601C8.69141 124.304 8.60156 124.06 8.42188 123.87C8.24219 123.68 8.0026 123.585 7.70312 123.585C7.34375 123.585 7.0638 123.688 6.86328 123.894C6.66536 124.097 6.56641 124.381 6.56641 124.745H5.84375C5.84375 124.222 6.01172 123.799 6.34766 123.476C6.6862 123.153 7.13802 122.991 7.70312 122.991C8.23177 122.991 8.64974 123.131 8.95703 123.409C9.26432 123.685 9.41797 124.054 9.41797 124.515C9.41797 125.075 9.0612 125.741 8.34766 126.515L6.82422 128.167H9.67969V128.757ZM10.5352 128.378C10.5352 128.253 10.5716 128.149 10.6445 128.065C10.7201 127.982 10.832 127.94 10.9805 127.94C11.1289 127.94 11.2409 127.982 11.3164 128.065C11.3945 128.149 11.4336 128.253 11.4336 128.378C11.4336 128.498 11.3945 128.598 11.3164 128.679C11.2409 128.759 11.1289 128.8 10.9805 128.8C10.832 128.8 10.7201 128.759 10.6445 128.679C10.5716 128.598 10.5352 128.498 10.5352 128.378ZM13.6055 125.562H14.1484C14.4896 125.556 14.7578 125.466 14.9531 125.292C15.1484 125.118 15.2461 124.882 15.2461 124.585C15.2461 123.918 14.9141 123.585 14.25 123.585C13.9375 123.585 13.6875 123.675 13.5 123.854C13.3151 124.032 13.2227 124.267 13.2227 124.562H12.5C12.5 124.111 12.6641 123.737 12.9922 123.44C13.3229 123.141 13.7422 122.991 14.25 122.991C14.7865 122.991 15.207 123.133 15.5117 123.417C15.8164 123.701 15.9688 124.095 15.9688 124.601C15.9688 124.848 15.888 125.088 15.7266 125.319C15.5677 125.551 15.3503 125.724 15.0742 125.839C15.3867 125.938 15.6276 126.102 15.7969 126.331C15.9688 126.56 16.0547 126.84 16.0547 127.171C16.0547 127.681 15.888 128.086 15.5547 128.386C15.2214 128.685 14.7878 128.835 14.2539 128.835C13.7201 128.835 13.2852 128.69 12.9492 128.401C12.6159 128.112 12.4492 127.731 12.4492 127.257H13.1758C13.1758 127.556 13.2734 127.796 13.4688 127.976C13.6641 128.155 13.9258 128.245 14.2539 128.245C14.6029 128.245 14.8698 128.154 15.0547 127.972C15.2396 127.789 15.332 127.528 15.332 127.187C15.332 126.856 15.2305 126.602 15.0273 126.425C14.8242 126.248 14.5312 126.157 14.1484 126.151H13.6055V125.562ZM19.7852 124.53L19.8047 124.999C20.1146 124.634 20.5326 124.452 21.0586 124.452C21.6497 124.452 22.0521 124.679 22.2656 125.132C22.4062 124.929 22.5885 124.765 22.8125 124.64C23.0391 124.515 23.306 124.452 23.6133 124.452C24.5404 124.452 25.0117 124.943 25.0273 125.925V128.757H24.3047V125.968C24.3047 125.666 24.2357 125.44 24.0977 125.292C23.9596 125.141 23.7279 125.065 23.4023 125.065C23.1341 125.065 22.9115 125.146 22.7344 125.308C22.5573 125.466 22.4544 125.681 22.4258 125.952V128.757H21.6992V125.987C21.6992 125.373 21.3984 125.065 20.7969 125.065C20.3229 125.065 19.9987 125.267 19.8242 125.671V128.757H19.1016V124.53H19.7852ZM26.9062 128.757H26.1836V124.53H26.9062V128.757ZM26.125 123.409C26.125 123.292 26.1602 123.193 26.2305 123.112C26.3034 123.032 26.4102 122.991 26.5508 122.991C26.6914 122.991 26.7982 123.032 26.8711 123.112C26.944 123.193 26.9805 123.292 26.9805 123.409C26.9805 123.526 26.944 123.624 26.8711 123.702C26.7982 123.78 26.6914 123.819 26.5508 123.819C26.4102 123.819 26.3034 123.78 26.2305 123.702C26.1602 123.624 26.125 123.526 26.125 123.409Z" fill="white"/>
<g filter="url(#filter2_d)">
<path d="M24 7H8C6.9 7 6 7.9 6 9V27L10 23H24C25.1 23 26 22.1 26 21V9C26 7.9 25.1 7 24 7ZM17.57 16.57L16 20L14.43 16.57L11 15L14.43 13.43L16 10L17.57 13.43L21 15L17.57 16.57Z" fill="white"/>
</g>
<rect x="20" width="11" height="11" rx="5.5" fill="#D32D7C"/>
<path d="M23.5054 7.216C23.8334 7.696 24.4974 8.096 25.4014 8.096C26.5774 8.096 27.2894 7.448 27.2894 6.56C27.2894 5.704 26.5454 5.288 26.0574 5.248C26.5614 5.16 27.2094 4.776 27.2094 4.008C27.2094 3.104 26.4254 2.584 25.4014 2.584C24.5774 2.584 23.9614 2.944 23.5774 3.408L23.9454 3.824C24.3374 3.4 24.7694 3.176 25.3534 3.176C26.0014 3.176 26.5454 3.496 26.5454 4.088C26.5454 4.704 25.9774 4.968 25.3054 4.968C25.0894 4.968 24.8414 4.968 24.7534 4.96V5.568C24.8334 5.56 25.0814 5.56 25.3054 5.56C26.0894 5.56 26.6334 5.84 26.6334 6.504C26.6334 7.12 26.1614 7.504 25.3854 7.504C24.7534 7.504 24.2094 7.216 23.8974 6.8L23.5054 7.216Z" fill="white"/>
<defs>
<filter id="filter0_d" x="0" y="49" width="32" height="30.89" filterUnits="userSpaceOnUse" color-interpolation-filters="sRGB">
<feFlood flood-opacity="0" result="BackgroundImageFix"/>
<feColorMatrix in="SourceAlpha" type="matrix" values="0 0 0 0 0 0 0 0 0 0 0 0 0 0 0 0 0 0 127 0" result="hardAlpha"/>
<feOffset dy="4"/>
<feGaussianBlur stdDeviation="2"/>
<feColorMatrix type="matrix" values="0 0 0 0 0 0 0 0 0 0 0 0 0 0 0 0 0 0 0.24 0"/>
<feBlend mode="normal" in2="BackgroundImageFix" result="effect1_dropShadow"/>
<feBlend mode="normal" in="SourceGraphic" in2="effect1_dropShadow" result="shape"/>
</filter>
<filter id="filter1_d" x="4" y="96" width="25" height="32" filterUnits="userSpaceOnUse" color-interpolation-filters="sRGB">
<feFlood flood-opacity="0" result="BackgroundImageFix"/>
<feColorMatrix in="SourceAlpha" type="matrix" values="0 0 0 0 0 0 0 0 0 0 0 0 0 0 0 0 0 0 127 0" result="hardAlpha"/>
<feOffset dy="4"/>
<feGaussianBlur stdDeviation="2"/>
<feColorMatrix type="matrix" values="0 0 0 0 0 0 0 0 0 0 0 0 0 0 0 0 0 0 0.24 0"/>
<feBlend mode="normal" in2="BackgroundImageFix" result="effect1_dropShadow"/>
<feBlend mode="normal" in="SourceGraphic" in2="effect1_dropShadow" result="shape"/>
</filter>
<filter id="filter2_d" x="0" y="5" width="32" height="32" filterUnits="userSpaceOnUse" color-interpolation-filters="sRGB">
<feFlood flood-opacity="0" result="BackgroundImageFix"/>
<feColorMatrix in="SourceAlpha" type="matrix" values="0 0 0 0 0 0 0 0 0 0 0 0 0 0 0 0 0 0 127 0" result="hardAlpha"/>
<feOffset dy="4"/>
<feGaussianBlur stdDeviation="2"/>
<feColorMatrix type="matrix" values="0 0 0 0 0 0 0 0 0 0 0 0 0 0 0 0 0 0 0.24 0"/>
<feBlend mode="normal" in2="BackgroundImageFix" result="effect1_dropShadow"/>
<feBlend mode="normal" in="SourceGraphic" in2="effect1_dropShadow" result="shape"/>
</filter>
</defs>
</svg>
