<svg width="88" height="14" viewBox="0 0 88 14" fill="none" xmlns="http://www.w3.org/2000/svg">
<path d="M7.04598 8.76172C7.04598 8.42969 6.92879 8.17578 6.69442 8C6.46004 7.82031 6.03817 7.63281 5.42879 7.4375C4.81942 7.23828 4.337 7.04297 3.98153 6.85156C3.01278 6.32812 2.5284 5.62305 2.5284 4.73633C2.5284 4.27539 2.65731 3.86523 2.91512 3.50586C3.17684 3.14258 3.54989 2.85938 4.03426 2.65625C4.52254 2.45312 5.06942 2.35156 5.67489 2.35156C6.28426 2.35156 6.82723 2.46289 7.30379 2.68555C7.78036 2.9043 8.1495 3.21484 8.41122 3.61719C8.67684 4.01953 8.80965 4.47656 8.80965 4.98828H7.05184C7.05184 4.59766 6.92879 4.29492 6.6827 4.08008C6.43661 3.86133 6.0909 3.75195 5.64559 3.75195C5.2159 3.75195 4.88192 3.84375 4.64364 4.02734C4.40536 4.20703 4.28622 4.44531 4.28622 4.74219C4.28622 5.01953 4.42489 5.25195 4.70223 5.43945C4.98348 5.62695 5.39559 5.80273 5.93856 5.9668C6.93856 6.26758 7.66708 6.64062 8.12411 7.08594C8.58114 7.53125 8.80965 8.08594 8.80965 8.75C8.80965 9.48828 8.53036 10.0684 7.97176 10.4902C7.41317 10.9082 6.66122 11.1172 5.7159 11.1172C5.05965 11.1172 4.462 10.998 3.92294 10.7598C3.38387 10.5176 2.97176 10.1875 2.68661 9.76953C2.40536 9.35156 2.26473 8.86719 2.26473 8.31641H4.0284C4.0284 9.25781 4.5909 9.72852 5.7159 9.72852C6.13387 9.72852 6.46004 9.64453 6.69442 9.47656C6.92879 9.30469 7.04598 9.06641 7.04598 8.76172ZM16.9843 11H15.2265V7.34375H11.7988V11H10.041V2.46875H11.7988V5.92578H15.2265V2.46875H16.9843V11ZM25.5692 6.92773C25.5692 7.76758 25.4207 8.50391 25.1238 9.13672C24.827 9.76953 24.4012 10.2578 23.8465 10.6016C23.2957 10.9453 22.6629 11.1172 21.9481 11.1172C21.241 11.1172 20.6102 10.9473 20.0555 10.6074C19.5008 10.2676 19.0711 9.7832 18.7664 9.1543C18.4617 8.52148 18.3074 7.79492 18.3035 6.97461V6.55273C18.3035 5.71289 18.4539 4.97461 18.7547 4.33789C19.0594 3.69727 19.4871 3.20703 20.0379 2.86719C20.5926 2.52344 21.2254 2.35156 21.9363 2.35156C22.6473 2.35156 23.2781 2.52344 23.8289 2.86719C24.3836 3.20703 24.8113 3.69727 25.1121 4.33789C25.4168 4.97461 25.5692 5.71094 25.5692 6.54688V6.92773ZM23.7879 6.54102C23.7879 5.64648 23.6277 4.9668 23.3074 4.50195C22.9871 4.03711 22.5301 3.80469 21.9363 3.80469C21.3465 3.80469 20.8914 4.03516 20.5711 4.49609C20.2508 4.95312 20.0887 5.625 20.0848 6.51172V6.92773C20.0848 7.79883 20.2449 8.47461 20.5652 8.95508C20.8856 9.43555 21.3465 9.67578 21.9481 9.67578C22.5379 9.67578 22.991 9.44531 23.3074 8.98438C23.6238 8.51953 23.784 7.84375 23.7879 6.95703V6.54102ZM33.527 8.53906L34.6755 2.46875H36.4274L34.5348 11H32.7653L31.3766 5.29297L29.988 11H28.2184L26.3259 2.46875H28.0778L29.2321 8.52734L30.6384 2.46875H32.1266L33.527 8.53906ZM42.7397 2.46875L44.9311 8.65625L47.1107 2.46875H49.4193V11H47.6557V8.66797L47.8315 4.64258L45.5287 11H44.3217L42.0248 4.64844L42.2006 8.66797V11H40.4428V2.46875H42.7397ZM57.9983 6.92773C57.9983 7.76758 57.8499 8.50391 57.553 9.13672C57.2561 9.76953 56.8303 10.2578 56.2757 10.6016C55.7249 10.9453 55.0921 11.1172 54.3772 11.1172C53.6702 11.1172 53.0393 10.9473 52.4846 10.6074C51.93 10.2676 51.5003 9.7832 51.1956 9.1543C50.8909 8.52148 50.7366 7.79492 50.7327 6.97461V6.55273C50.7327 5.71289 50.8831 4.97461 51.1839 4.33789C51.4885 3.69727 51.9163 3.20703 52.4671 2.86719C53.0217 2.52344 53.6546 2.35156 54.3655 2.35156C55.0764 2.35156 55.7073 2.52344 56.2581 2.86719C56.8128 3.20703 57.2405 3.69727 57.5413 4.33789C57.846 4.97461 57.9983 5.71094 57.9983 6.54688V6.92773ZM56.2171 6.54102C56.2171 5.64648 56.0569 4.9668 55.7366 4.50195C55.4163 4.03711 54.9592 3.80469 54.3655 3.80469C53.7757 3.80469 53.3206 4.03516 53.0003 4.49609C52.68 4.95312 52.5178 5.625 52.5139 6.51172V6.92773C52.5139 7.79883 52.6741 8.47461 52.9944 8.95508C53.3147 9.43555 53.7757 9.67578 54.3772 9.67578C54.9671 9.67578 55.4202 9.44531 55.7366 8.98438C56.053 8.51953 56.2132 7.84375 56.2171 6.95703V6.54102ZM62.4699 7.87695H61.0695V11H59.3117V2.46875H62.4816C63.4894 2.46875 64.2667 2.69336 64.8136 3.14258C65.3605 3.5918 65.6339 4.22656 65.6339 5.04688C65.6339 5.62891 65.507 6.11523 65.2531 6.50586C65.0031 6.89258 64.6222 7.20117 64.1105 7.43164L65.9562 10.918V11H64.0695L62.4699 7.87695ZM61.0695 6.45312H62.4874C62.9288 6.45312 63.2706 6.3418 63.5128 6.11914C63.755 5.89258 63.8761 5.58203 63.8761 5.1875C63.8761 4.78516 63.7609 4.46875 63.5304 4.23828C63.3038 4.00781 62.9542 3.89258 62.4816 3.89258H61.0695V6.45312ZM72.1445 7.30273H68.7695V9.58789H72.7305V11H67.0117V2.46875H72.7188V3.89258H68.7695V5.92578H72.1445V7.30273Z" fill="white"/>
<path fill-rule="evenodd" clip-rule="evenodd" d="M77.0914 4.56529C77.0021 4.47048 76.9755 4.32815 77.0238 4.20434C77.0721 4.08053 77.1857 4 77.3117 4H87.6881C87.8144 4 87.928 4.08053 87.9763 4.20434C88.0244 4.32815 87.998 4.47048 87.9087 4.56529L82.985 9.795C82.7172 10.0794 82.2829 10.0792 82.0151 9.795L77.0914 4.56529Z" fill="white"/>
</svg>
